<mxfile host="app.diagrams.net" modified="2022-05-18T02:26:57.096Z" agent="5.0 (Windows NT 10.0; Win64; x64) AppleWebKit/537.36 (KHTML, like Gecko) Chrome/101.0.4951.67 Safari/537.36" etag="rggPnywS4XmbcdiBbS_3" version="18.0.7" type="github" pages="3">
  <diagram id="C5RBs43oDa-KdzZeNtuy" name="Page-1">
    <mxGraphModel dx="2370" dy="1228" grid="1" gridSize="10" guides="1" tooltips="1" connect="1" arrows="1" fold="1" page="1" pageScale="1" pageWidth="827" pageHeight="1169" math="0" shadow="0">
      <root>
        <mxCell id="WIyWlLk6GJQsqaUBKTNV-0" />
        <mxCell id="WIyWlLk6GJQsqaUBKTNV-1" parent="WIyWlLk6GJQsqaUBKTNV-0" />
        <mxCell id="4PskpI2RZqfo5KmqGM8r-11" value="게임 매니저" style="swimlane;fontStyle=0;childLayout=stackLayout;horizontal=1;startSize=30;horizontalStack=0;resizeParent=1;resizeParentMax=0;resizeLast=0;collapsible=1;marginBottom=0;" parent="WIyWlLk6GJQsqaUBKTNV-1" vertex="1">
          <mxGeometry x="360" y="20" width="140" height="610" as="geometry" />
        </mxCell>
        <mxCell id="4PskpI2RZqfo5KmqGM8r-12" value="게임시작&#xa;" style="text;strokeColor=none;fillColor=none;align=left;verticalAlign=middle;spacingLeft=4;spacingRight=4;overflow=hidden;points=[[0,0.5],[1,0.5]];portConstraint=eastwest;rotatable=0;" parent="4PskpI2RZqfo5KmqGM8r-11" vertex="1">
          <mxGeometry y="30" width="140" height="40" as="geometry" />
        </mxCell>
        <mxCell id="4PskpI2RZqfo5KmqGM8r-17" value="게임끝&#xa;" style="text;strokeColor=none;fillColor=none;align=left;verticalAlign=middle;spacingLeft=4;spacingRight=4;overflow=hidden;points=[[0,0.5],[1,0.5]];portConstraint=eastwest;rotatable=0;" parent="4PskpI2RZqfo5KmqGM8r-11" vertex="1">
          <mxGeometry y="70" width="140" height="40" as="geometry" />
        </mxCell>
        <mxCell id="4PskpI2RZqfo5KmqGM8r-18" value="스코어&#xa;" style="text;strokeColor=none;fillColor=none;align=left;verticalAlign=middle;spacingLeft=4;spacingRight=4;overflow=hidden;points=[[0,0.5],[1,0.5]];portConstraint=eastwest;rotatable=0;" parent="4PskpI2RZqfo5KmqGM8r-11" vertex="1">
          <mxGeometry y="110" width="140" height="40" as="geometry" />
        </mxCell>
        <mxCell id="4PskpI2RZqfo5KmqGM8r-19" value="클리어타임" style="text;strokeColor=none;fillColor=none;align=left;verticalAlign=middle;spacingLeft=4;spacingRight=4;overflow=hidden;points=[[0,0.5],[1,0.5]];portConstraint=eastwest;rotatable=0;" parent="4PskpI2RZqfo5KmqGM8r-11" vertex="1">
          <mxGeometry y="150" width="140" height="40" as="geometry" />
        </mxCell>
        <mxCell id="4PskpI2RZqfo5KmqGM8r-20" value="현재총알개수" style="text;strokeColor=none;fillColor=none;align=left;verticalAlign=middle;spacingLeft=4;spacingRight=4;overflow=hidden;points=[[0,0.5],[1,0.5]];portConstraint=eastwest;rotatable=0;" parent="4PskpI2RZqfo5KmqGM8r-11" vertex="1">
          <mxGeometry y="190" width="140" height="40" as="geometry" />
        </mxCell>
        <mxCell id="4PskpI2RZqfo5KmqGM8r-21" value="최대총알개수" style="text;strokeColor=none;fillColor=none;align=left;verticalAlign=middle;spacingLeft=4;spacingRight=4;overflow=hidden;points=[[0,0.5],[1,0.5]];portConstraint=eastwest;rotatable=0;" parent="4PskpI2RZqfo5KmqGM8r-11" vertex="1">
          <mxGeometry y="230" width="140" height="40" as="geometry" />
        </mxCell>
        <mxCell id="4PskpI2RZqfo5KmqGM8r-22" value="캔버스사이즈" style="text;strokeColor=none;fillColor=none;align=left;verticalAlign=middle;spacingLeft=4;spacingRight=4;overflow=hidden;points=[[0,0.5],[1,0.5]];portConstraint=eastwest;rotatable=0;" parent="4PskpI2RZqfo5KmqGM8r-11" vertex="1">
          <mxGeometry y="270" width="140" height="40" as="geometry" />
        </mxCell>
        <mxCell id="4PskpI2RZqfo5KmqGM8r-24" value="총알재장전" style="text;strokeColor=none;fillColor=none;align=left;verticalAlign=middle;spacingLeft=4;spacingRight=4;overflow=hidden;points=[[0,0.5],[1,0.5]];portConstraint=eastwest;rotatable=0;" parent="4PskpI2RZqfo5KmqGM8r-11" vertex="1">
          <mxGeometry y="310" width="140" height="40" as="geometry" />
        </mxCell>
        <mxCell id="4PskpI2RZqfo5KmqGM8r-30" value="총알딜레이" style="text;strokeColor=none;fillColor=none;align=left;verticalAlign=middle;spacingLeft=4;spacingRight=4;overflow=hidden;points=[[0,0.5],[1,0.5]];portConstraint=eastwest;rotatable=0;" parent="4PskpI2RZqfo5KmqGM8r-11" vertex="1">
          <mxGeometry y="350" width="140" height="40" as="geometry" />
        </mxCell>
        <mxCell id="4PskpI2RZqfo5KmqGM8r-32" value="총알공격력" style="text;strokeColor=none;fillColor=none;align=left;verticalAlign=middle;spacingLeft=4;spacingRight=4;overflow=hidden;points=[[0,0.5],[1,0.5]];portConstraint=eastwest;rotatable=0;" parent="4PskpI2RZqfo5KmqGM8r-11" vertex="1">
          <mxGeometry y="390" width="140" height="40" as="geometry" />
        </mxCell>
        <mxCell id="4PskpI2RZqfo5KmqGM8r-41" value="플레이어와 적의 충돌" style="text;strokeColor=none;fillColor=none;align=left;verticalAlign=middle;spacingLeft=4;spacingRight=4;overflow=hidden;points=[[0,0.5],[1,0.5]];portConstraint=eastwest;rotatable=0;" parent="4PskpI2RZqfo5KmqGM8r-11" vertex="1">
          <mxGeometry y="430" width="140" height="30" as="geometry" />
        </mxCell>
        <mxCell id="4PskpI2RZqfo5KmqGM8r-49" value="적의최대개수" style="text;strokeColor=none;fillColor=none;align=left;verticalAlign=middle;spacingLeft=4;spacingRight=4;overflow=hidden;points=[[0,0.5],[1,0.5]];portConstraint=eastwest;rotatable=0;" parent="4PskpI2RZqfo5KmqGM8r-11" vertex="1">
          <mxGeometry y="460" width="140" height="40" as="geometry" />
        </mxCell>
        <mxCell id="4PskpI2RZqfo5KmqGM8r-48" value="적의재생성시간" style="text;strokeColor=none;fillColor=none;align=left;verticalAlign=middle;spacingLeft=4;spacingRight=4;overflow=hidden;points=[[0,0.5],[1,0.5]];portConstraint=eastwest;rotatable=0;" parent="4PskpI2RZqfo5KmqGM8r-11" vertex="1">
          <mxGeometry y="500" width="140" height="30" as="geometry" />
        </mxCell>
        <mxCell id="4PskpI2RZqfo5KmqGM8r-53" value="적이랑총알이랑충돌" style="text;strokeColor=none;fillColor=none;align=left;verticalAlign=middle;spacingLeft=4;spacingRight=4;overflow=hidden;points=[[0,0.5],[1,0.5]];portConstraint=eastwest;rotatable=0;" parent="4PskpI2RZqfo5KmqGM8r-11" vertex="1">
          <mxGeometry y="530" width="140" height="40" as="geometry" />
        </mxCell>
        <mxCell id="4PskpI2RZqfo5KmqGM8r-27" value="onclick(클릭시총알발사)" style="text;strokeColor=none;fillColor=none;align=left;verticalAlign=middle;spacingLeft=4;spacingRight=4;overflow=hidden;points=[[0,0.5],[1,0.5]];portConstraint=eastwest;rotatable=0;" parent="4PskpI2RZqfo5KmqGM8r-11" vertex="1">
          <mxGeometry y="570" width="140" height="40" as="geometry" />
        </mxCell>
        <mxCell id="4PskpI2RZqfo5KmqGM8r-33" value="적" style="swimlane;" parent="WIyWlLk6GJQsqaUBKTNV-1" vertex="1">
          <mxGeometry x="10" y="700" width="210" height="220" as="geometry" />
        </mxCell>
        <mxCell id="4PskpI2RZqfo5KmqGM8r-43" value="적크기" style="text;strokeColor=none;fillColor=none;align=left;verticalAlign=middle;spacingLeft=4;spacingRight=4;overflow=hidden;points=[[0,0.5],[1,0.5]];portConstraint=eastwest;rotatable=0;" parent="4PskpI2RZqfo5KmqGM8r-33" vertex="1">
          <mxGeometry y="30" width="200" height="30" as="geometry" />
        </mxCell>
        <mxCell id="4PskpI2RZqfo5KmqGM8r-44" value="적체력" style="text;strokeColor=none;fillColor=none;align=left;verticalAlign=middle;spacingLeft=4;spacingRight=4;overflow=hidden;points=[[0,0.5],[1,0.5]];portConstraint=eastwest;rotatable=0;" parent="4PskpI2RZqfo5KmqGM8r-33" vertex="1">
          <mxGeometry y="65" width="200" height="30" as="geometry" />
        </mxCell>
        <mxCell id="4PskpI2RZqfo5KmqGM8r-45" value="적생성위치" style="text;strokeColor=none;fillColor=none;align=left;verticalAlign=middle;spacingLeft=4;spacingRight=4;overflow=hidden;points=[[0,0.5],[1,0.5]];portConstraint=eastwest;rotatable=0;" parent="4PskpI2RZqfo5KmqGM8r-33" vertex="1">
          <mxGeometry y="100" width="200" height="30" as="geometry" />
        </mxCell>
        <mxCell id="4PskpI2RZqfo5KmqGM8r-46" value="적의이동방향" style="text;strokeColor=none;fillColor=none;align=left;verticalAlign=middle;spacingLeft=4;spacingRight=4;overflow=hidden;points=[[0,0.5],[1,0.5]];portConstraint=eastwest;rotatable=0;" parent="4PskpI2RZqfo5KmqGM8r-33" vertex="1">
          <mxGeometry y="140" width="200" height="30" as="geometry" />
        </mxCell>
        <mxCell id="4PskpI2RZqfo5KmqGM8r-47" value="적의스피드" style="text;strokeColor=none;fillColor=none;align=left;verticalAlign=middle;spacingLeft=4;spacingRight=4;overflow=hidden;points=[[0,0.5],[1,0.5]];portConstraint=eastwest;rotatable=0;" parent="4PskpI2RZqfo5KmqGM8r-33" vertex="1">
          <mxGeometry y="180" width="200" height="30" as="geometry" />
        </mxCell>
        <mxCell id="4PskpI2RZqfo5KmqGM8r-34" value="총알" style="swimlane;" parent="WIyWlLk6GJQsqaUBKTNV-1" vertex="1">
          <mxGeometry x="620" y="770" width="200" height="120" as="geometry" />
        </mxCell>
        <mxCell id="4PskpI2RZqfo5KmqGM8r-50" value="총알스피드" style="text;strokeColor=none;fillColor=none;align=left;verticalAlign=middle;spacingLeft=4;spacingRight=4;overflow=hidden;points=[[0,0.5],[1,0.5]];portConstraint=eastwest;rotatable=0;" parent="4PskpI2RZqfo5KmqGM8r-34" vertex="1">
          <mxGeometry y="30" width="200" height="30" as="geometry" />
        </mxCell>
        <mxCell id="4PskpI2RZqfo5KmqGM8r-51" value="총알크기" style="text;strokeColor=none;fillColor=none;align=left;verticalAlign=middle;spacingLeft=4;spacingRight=4;overflow=hidden;points=[[0,0.5],[1,0.5]];portConstraint=eastwest;rotatable=0;" parent="4PskpI2RZqfo5KmqGM8r-34" vertex="1">
          <mxGeometry y="65" width="200" height="30" as="geometry" />
        </mxCell>
        <mxCell id="4PskpI2RZqfo5KmqGM8r-35" value="플레이어" style="swimlane;startSize=30;" parent="WIyWlLk6GJQsqaUBKTNV-1" vertex="1">
          <mxGeometry x="330" y="700" width="200" height="140" as="geometry" />
        </mxCell>
        <mxCell id="4PskpI2RZqfo5KmqGM8r-36" value="플레이어크기" style="text;strokeColor=none;fillColor=none;align=left;verticalAlign=middle;spacingLeft=4;spacingRight=4;overflow=hidden;points=[[0,0.5],[1,0.5]];portConstraint=eastwest;rotatable=0;" parent="4PskpI2RZqfo5KmqGM8r-35" vertex="1">
          <mxGeometry y="30" width="200" height="30" as="geometry" />
        </mxCell>
        <mxCell id="4PskpI2RZqfo5KmqGM8r-39" value="플레이어체력" style="text;strokeColor=none;fillColor=none;align=left;verticalAlign=middle;spacingLeft=4;spacingRight=4;overflow=hidden;points=[[0,0.5],[1,0.5]];portConstraint=eastwest;rotatable=0;" parent="4PskpI2RZqfo5KmqGM8r-35" vertex="1">
          <mxGeometry y="60" width="200" height="30" as="geometry" />
        </mxCell>
        <mxCell id="4PskpI2RZqfo5KmqGM8r-40" value="플레이어위치" style="text;strokeColor=none;fillColor=none;align=left;verticalAlign=middle;spacingLeft=4;spacingRight=4;overflow=hidden;points=[[0,0.5],[1,0.5]];portConstraint=eastwest;rotatable=0;" parent="4PskpI2RZqfo5KmqGM8r-35" vertex="1">
          <mxGeometry y="100" width="200" height="30" as="geometry" />
        </mxCell>
        <mxCell id="4PskpI2RZqfo5KmqGM8r-56" value="" style="endArrow=classic;startArrow=classic;html=1;rounded=0;exitX=0.543;exitY=-0.009;exitDx=0;exitDy=0;exitPerimeter=0;" parent="WIyWlLk6GJQsqaUBKTNV-1" source="4PskpI2RZqfo5KmqGM8r-33" edge="1">
          <mxGeometry width="50" height="50" relative="1" as="geometry">
            <mxPoint x="130" y="680" as="sourcePoint" />
            <mxPoint x="360" y="350" as="targetPoint" />
          </mxGeometry>
        </mxCell>
        <mxCell id="4PskpI2RZqfo5KmqGM8r-57" value="" style="endArrow=classic;startArrow=classic;html=1;rounded=0;exitX=0.55;exitY=-0.033;exitDx=0;exitDy=0;exitPerimeter=0;" parent="WIyWlLk6GJQsqaUBKTNV-1" source="4PskpI2RZqfo5KmqGM8r-34" edge="1">
          <mxGeometry width="50" height="50" relative="1" as="geometry">
            <mxPoint x="700" y="775" as="sourcePoint" />
            <mxPoint x="500" y="350" as="targetPoint" />
          </mxGeometry>
        </mxCell>
        <mxCell id="4PskpI2RZqfo5KmqGM8r-58" value="" style="endArrow=classic;startArrow=classic;html=1;rounded=0;" parent="WIyWlLk6GJQsqaUBKTNV-1" source="4PskpI2RZqfo5KmqGM8r-35" edge="1">
          <mxGeometry width="50" height="50" relative="1" as="geometry">
            <mxPoint x="670" y="1046.04" as="sourcePoint" />
            <mxPoint x="440" y="630" as="targetPoint" />
          </mxGeometry>
        </mxCell>
      </root>
    </mxGraphModel>
  </diagram>
  <diagram id="NZiIiFC8Fb9gvlY1gPET" name="Page-2">
    <mxGraphModel dx="2031" dy="1053" grid="1" gridSize="10" guides="1" tooltips="1" connect="1" arrows="1" fold="1" page="1" pageScale="1" pageWidth="827" pageHeight="1169" math="0" shadow="0">
      <root>
        <mxCell id="0" />
        <mxCell id="1" parent="0" />
        <mxCell id="gbVMluVBchDvF7gR75sc-1" value="게임 매니저" style="swimlane;fontStyle=0;childLayout=stackLayout;horizontal=1;startSize=30;horizontalStack=0;resizeParent=1;resizeParentMax=0;resizeLast=0;collapsible=1;marginBottom=0;" vertex="1" parent="1">
          <mxGeometry x="360" y="20" width="140" height="610" as="geometry" />
        </mxCell>
        <mxCell id="gbVMluVBchDvF7gR75sc-2" value="gameStart" style="text;strokeColor=none;fillColor=none;align=left;verticalAlign=middle;spacingLeft=4;spacingRight=4;overflow=hidden;points=[[0,0.5],[1,0.5]];portConstraint=eastwest;rotatable=0;" vertex="1" parent="gbVMluVBchDvF7gR75sc-1">
          <mxGeometry y="30" width="140" height="40" as="geometry" />
        </mxCell>
        <mxCell id="gbVMluVBchDvF7gR75sc-3" value="game End" style="text;strokeColor=none;fillColor=none;align=left;verticalAlign=middle;spacingLeft=4;spacingRight=4;overflow=hidden;points=[[0,0.5],[1,0.5]];portConstraint=eastwest;rotatable=0;" vertex="1" parent="gbVMluVBchDvF7gR75sc-1">
          <mxGeometry y="70" width="140" height="40" as="geometry" />
        </mxCell>
        <mxCell id="gbVMluVBchDvF7gR75sc-4" value="score" style="text;strokeColor=none;fillColor=none;align=left;verticalAlign=middle;spacingLeft=4;spacingRight=4;overflow=hidden;points=[[0,0.5],[1,0.5]];portConstraint=eastwest;rotatable=0;" vertex="1" parent="gbVMluVBchDvF7gR75sc-1">
          <mxGeometry y="110" width="140" height="40" as="geometry" />
        </mxCell>
        <mxCell id="gbVMluVBchDvF7gR75sc-5" value="Clear Time" style="text;strokeColor=none;fillColor=none;align=left;verticalAlign=middle;spacingLeft=4;spacingRight=4;overflow=hidden;points=[[0,0.5],[1,0.5]];portConstraint=eastwest;rotatable=0;" vertex="1" parent="gbVMluVBchDvF7gR75sc-1">
          <mxGeometry y="150" width="140" height="40" as="geometry" />
        </mxCell>
        <mxCell id="gbVMluVBchDvF7gR75sc-6" value="current number of bullets" style="text;strokeColor=none;fillColor=none;align=left;verticalAlign=middle;spacingLeft=4;spacingRight=4;overflow=hidden;points=[[0,0.5],[1,0.5]];portConstraint=eastwest;rotatable=0;" vertex="1" parent="gbVMluVBchDvF7gR75sc-1">
          <mxGeometry y="190" width="140" height="40" as="geometry" />
        </mxCell>
        <mxCell id="gbVMluVBchDvF7gR75sc-7" value="max bullets" style="text;strokeColor=none;fillColor=none;align=left;verticalAlign=middle;spacingLeft=4;spacingRight=4;overflow=hidden;points=[[0,0.5],[1,0.5]];portConstraint=eastwest;rotatable=0;" vertex="1" parent="gbVMluVBchDvF7gR75sc-1">
          <mxGeometry y="230" width="140" height="40" as="geometry" />
        </mxCell>
        <mxCell id="gbVMluVBchDvF7gR75sc-8" value="canvus size" style="text;strokeColor=none;fillColor=none;align=left;verticalAlign=middle;spacingLeft=4;spacingRight=4;overflow=hidden;points=[[0,0.5],[1,0.5]];portConstraint=eastwest;rotatable=0;" vertex="1" parent="gbVMluVBchDvF7gR75sc-1">
          <mxGeometry y="270" width="140" height="40" as="geometry" />
        </mxCell>
        <mxCell id="gbVMluVBchDvF7gR75sc-9" value="bullets reload" style="text;strokeColor=none;fillColor=none;align=left;verticalAlign=middle;spacingLeft=4;spacingRight=4;overflow=hidden;points=[[0,0.5],[1,0.5]];portConstraint=eastwest;rotatable=0;" vertex="1" parent="gbVMluVBchDvF7gR75sc-1">
          <mxGeometry y="310" width="140" height="40" as="geometry" />
        </mxCell>
        <mxCell id="gbVMluVBchDvF7gR75sc-10" value="bullets delay" style="text;strokeColor=none;fillColor=none;align=left;verticalAlign=middle;spacingLeft=4;spacingRight=4;overflow=hidden;points=[[0,0.5],[1,0.5]];portConstraint=eastwest;rotatable=0;" vertex="1" parent="gbVMluVBchDvF7gR75sc-1">
          <mxGeometry y="350" width="140" height="40" as="geometry" />
        </mxCell>
        <mxCell id="gbVMluVBchDvF7gR75sc-11" value="총알공격력" style="text;strokeColor=none;fillColor=none;align=left;verticalAlign=middle;spacingLeft=4;spacingRight=4;overflow=hidden;points=[[0,0.5],[1,0.5]];portConstraint=eastwest;rotatable=0;" vertex="1" parent="gbVMluVBchDvF7gR75sc-1">
          <mxGeometry y="390" width="140" height="40" as="geometry" />
        </mxCell>
        <mxCell id="gbVMluVBchDvF7gR75sc-12" value="플레이어와 적의 충돌" style="text;strokeColor=none;fillColor=none;align=left;verticalAlign=middle;spacingLeft=4;spacingRight=4;overflow=hidden;points=[[0,0.5],[1,0.5]];portConstraint=eastwest;rotatable=0;" vertex="1" parent="gbVMluVBchDvF7gR75sc-1">
          <mxGeometry y="430" width="140" height="30" as="geometry" />
        </mxCell>
        <mxCell id="gbVMluVBchDvF7gR75sc-13" value="적의최대개수" style="text;strokeColor=none;fillColor=none;align=left;verticalAlign=middle;spacingLeft=4;spacingRight=4;overflow=hidden;points=[[0,0.5],[1,0.5]];portConstraint=eastwest;rotatable=0;" vertex="1" parent="gbVMluVBchDvF7gR75sc-1">
          <mxGeometry y="460" width="140" height="40" as="geometry" />
        </mxCell>
        <mxCell id="gbVMluVBchDvF7gR75sc-14" value="적의재생성시간" style="text;strokeColor=none;fillColor=none;align=left;verticalAlign=middle;spacingLeft=4;spacingRight=4;overflow=hidden;points=[[0,0.5],[1,0.5]];portConstraint=eastwest;rotatable=0;" vertex="1" parent="gbVMluVBchDvF7gR75sc-1">
          <mxGeometry y="500" width="140" height="30" as="geometry" />
        </mxCell>
        <mxCell id="gbVMluVBchDvF7gR75sc-15" value="적이랑총알이랑충돌" style="text;strokeColor=none;fillColor=none;align=left;verticalAlign=middle;spacingLeft=4;spacingRight=4;overflow=hidden;points=[[0,0.5],[1,0.5]];portConstraint=eastwest;rotatable=0;" vertex="1" parent="gbVMluVBchDvF7gR75sc-1">
          <mxGeometry y="530" width="140" height="40" as="geometry" />
        </mxCell>
        <mxCell id="gbVMluVBchDvF7gR75sc-16" value="onclick(클릭시총알발사)" style="text;strokeColor=none;fillColor=none;align=left;verticalAlign=middle;spacingLeft=4;spacingRight=4;overflow=hidden;points=[[0,0.5],[1,0.5]];portConstraint=eastwest;rotatable=0;" vertex="1" parent="gbVMluVBchDvF7gR75sc-1">
          <mxGeometry y="570" width="140" height="40" as="geometry" />
        </mxCell>
        <mxCell id="gbVMluVBchDvF7gR75sc-17" value="적" style="swimlane;" vertex="1" parent="1">
          <mxGeometry x="10" y="700" width="210" height="220" as="geometry" />
        </mxCell>
        <mxCell id="gbVMluVBchDvF7gR75sc-18" value="적크기" style="text;strokeColor=none;fillColor=none;align=left;verticalAlign=middle;spacingLeft=4;spacingRight=4;overflow=hidden;points=[[0,0.5],[1,0.5]];portConstraint=eastwest;rotatable=0;" vertex="1" parent="gbVMluVBchDvF7gR75sc-17">
          <mxGeometry y="30" width="200" height="30" as="geometry" />
        </mxCell>
        <mxCell id="gbVMluVBchDvF7gR75sc-19" value="적체력" style="text;strokeColor=none;fillColor=none;align=left;verticalAlign=middle;spacingLeft=4;spacingRight=4;overflow=hidden;points=[[0,0.5],[1,0.5]];portConstraint=eastwest;rotatable=0;" vertex="1" parent="gbVMluVBchDvF7gR75sc-17">
          <mxGeometry y="65" width="200" height="30" as="geometry" />
        </mxCell>
        <mxCell id="gbVMluVBchDvF7gR75sc-20" value="적생성위치" style="text;strokeColor=none;fillColor=none;align=left;verticalAlign=middle;spacingLeft=4;spacingRight=4;overflow=hidden;points=[[0,0.5],[1,0.5]];portConstraint=eastwest;rotatable=0;" vertex="1" parent="gbVMluVBchDvF7gR75sc-17">
          <mxGeometry y="100" width="200" height="30" as="geometry" />
        </mxCell>
        <mxCell id="gbVMluVBchDvF7gR75sc-21" value="적의이동방향" style="text;strokeColor=none;fillColor=none;align=left;verticalAlign=middle;spacingLeft=4;spacingRight=4;overflow=hidden;points=[[0,0.5],[1,0.5]];portConstraint=eastwest;rotatable=0;" vertex="1" parent="gbVMluVBchDvF7gR75sc-17">
          <mxGeometry y="140" width="200" height="30" as="geometry" />
        </mxCell>
        <mxCell id="gbVMluVBchDvF7gR75sc-22" value="적의스피드" style="text;strokeColor=none;fillColor=none;align=left;verticalAlign=middle;spacingLeft=4;spacingRight=4;overflow=hidden;points=[[0,0.5],[1,0.5]];portConstraint=eastwest;rotatable=0;" vertex="1" parent="gbVMluVBchDvF7gR75sc-17">
          <mxGeometry y="180" width="200" height="30" as="geometry" />
        </mxCell>
        <mxCell id="gbVMluVBchDvF7gR75sc-23" value="총알" style="swimlane;" vertex="1" parent="1">
          <mxGeometry x="620" y="770" width="200" height="120" as="geometry" />
        </mxCell>
        <mxCell id="gbVMluVBchDvF7gR75sc-24" value="총알스피드" style="text;strokeColor=none;fillColor=none;align=left;verticalAlign=middle;spacingLeft=4;spacingRight=4;overflow=hidden;points=[[0,0.5],[1,0.5]];portConstraint=eastwest;rotatable=0;" vertex="1" parent="gbVMluVBchDvF7gR75sc-23">
          <mxGeometry y="30" width="200" height="30" as="geometry" />
        </mxCell>
        <mxCell id="gbVMluVBchDvF7gR75sc-25" value="총알크기" style="text;strokeColor=none;fillColor=none;align=left;verticalAlign=middle;spacingLeft=4;spacingRight=4;overflow=hidden;points=[[0,0.5],[1,0.5]];portConstraint=eastwest;rotatable=0;" vertex="1" parent="gbVMluVBchDvF7gR75sc-23">
          <mxGeometry y="65" width="200" height="30" as="geometry" />
        </mxCell>
        <mxCell id="gbVMluVBchDvF7gR75sc-26" value="플레이어" style="swimlane;startSize=30;" vertex="1" parent="1">
          <mxGeometry x="330" y="700" width="200" height="140" as="geometry" />
        </mxCell>
        <mxCell id="gbVMluVBchDvF7gR75sc-27" value="플레이어크기" style="text;strokeColor=none;fillColor=none;align=left;verticalAlign=middle;spacingLeft=4;spacingRight=4;overflow=hidden;points=[[0,0.5],[1,0.5]];portConstraint=eastwest;rotatable=0;" vertex="1" parent="gbVMluVBchDvF7gR75sc-26">
          <mxGeometry y="30" width="200" height="30" as="geometry" />
        </mxCell>
        <mxCell id="gbVMluVBchDvF7gR75sc-28" value="플레이어체력" style="text;strokeColor=none;fillColor=none;align=left;verticalAlign=middle;spacingLeft=4;spacingRight=4;overflow=hidden;points=[[0,0.5],[1,0.5]];portConstraint=eastwest;rotatable=0;" vertex="1" parent="gbVMluVBchDvF7gR75sc-26">
          <mxGeometry y="60" width="200" height="30" as="geometry" />
        </mxCell>
        <mxCell id="gbVMluVBchDvF7gR75sc-29" value="플레이어위치" style="text;strokeColor=none;fillColor=none;align=left;verticalAlign=middle;spacingLeft=4;spacingRight=4;overflow=hidden;points=[[0,0.5],[1,0.5]];portConstraint=eastwest;rotatable=0;" vertex="1" parent="gbVMluVBchDvF7gR75sc-26">
          <mxGeometry y="100" width="200" height="30" as="geometry" />
        </mxCell>
        <mxCell id="gbVMluVBchDvF7gR75sc-30" value="" style="endArrow=classic;startArrow=classic;html=1;rounded=0;exitX=0.543;exitY=-0.009;exitDx=0;exitDy=0;exitPerimeter=0;" edge="1" parent="1" source="gbVMluVBchDvF7gR75sc-17">
          <mxGeometry width="50" height="50" relative="1" as="geometry">
            <mxPoint x="130" y="680" as="sourcePoint" />
            <mxPoint x="360" y="350" as="targetPoint" />
          </mxGeometry>
        </mxCell>
        <mxCell id="gbVMluVBchDvF7gR75sc-31" value="" style="endArrow=classic;startArrow=classic;html=1;rounded=0;exitX=0.55;exitY=-0.033;exitDx=0;exitDy=0;exitPerimeter=0;" edge="1" parent="1" source="gbVMluVBchDvF7gR75sc-23">
          <mxGeometry width="50" height="50" relative="1" as="geometry">
            <mxPoint x="700" y="775" as="sourcePoint" />
            <mxPoint x="500" y="350" as="targetPoint" />
          </mxGeometry>
        </mxCell>
        <mxCell id="gbVMluVBchDvF7gR75sc-32" value="" style="endArrow=classic;startArrow=classic;html=1;rounded=0;" edge="1" parent="1" source="gbVMluVBchDvF7gR75sc-26">
          <mxGeometry width="50" height="50" relative="1" as="geometry">
            <mxPoint x="670" y="1046.04" as="sourcePoint" />
            <mxPoint x="440" y="630" as="targetPoint" />
          </mxGeometry>
        </mxCell>
      </root>
    </mxGraphModel>
  </diagram>
  <diagram id="JrSPUP2nmHSVpq8iX-ES" name="Page-3">
    <mxGraphModel dx="813" dy="421" grid="1" gridSize="10" guides="1" tooltips="1" connect="1" arrows="1" fold="1" page="1" pageScale="1" pageWidth="827" pageHeight="1169" math="0" shadow="0">
      <root>
        <mxCell id="0" />
        <mxCell id="1" parent="0" />
        <mxCell id="ZdHFeL4j2gH8la3WHfmR-1" value="GameObject" style="swimlane;" vertex="1" parent="1">
          <mxGeometry x="170" y="120" width="200" height="200" as="geometry" />
        </mxCell>
        <mxCell id="ZdHFeL4j2gH8la3WHfmR-2" value="var x,y" style="text;html=1;align=center;verticalAlign=middle;resizable=0;points=[];autosize=1;strokeColor=none;fillColor=none;" vertex="1" parent="ZdHFeL4j2gH8la3WHfmR-1">
          <mxGeometry x="20" y="20" width="50" height="20" as="geometry" />
        </mxCell>
        <mxCell id="ZdHFeL4j2gH8la3WHfmR-7" value="var name" style="text;html=1;align=center;verticalAlign=middle;resizable=0;points=[];autosize=1;strokeColor=none;fillColor=none;" vertex="1" parent="ZdHFeL4j2gH8la3WHfmR-1">
          <mxGeometry x="20" y="40" width="70" height="20" as="geometry" />
        </mxCell>
        <mxCell id="ZdHFeL4j2gH8la3WHfmR-8" value="var collider" style="text;html=1;align=center;verticalAlign=middle;resizable=0;points=[];autosize=1;strokeColor=none;fillColor=none;" vertex="1" parent="ZdHFeL4j2gH8la3WHfmR-1">
          <mxGeometry x="20" y="60" width="70" height="20" as="geometry" />
        </mxCell>
        <mxCell id="ZdHFeL4j2gH8la3WHfmR-13" value="on Start()" style="text;html=1;align=center;verticalAlign=middle;resizable=0;points=[];autosize=1;strokeColor=none;fillColor=none;" vertex="1" parent="ZdHFeL4j2gH8la3WHfmR-1">
          <mxGeometry x="20" y="110" width="70" height="20" as="geometry" />
        </mxCell>
        <mxCell id="ZdHFeL4j2gH8la3WHfmR-14" value="onUpdate()" style="text;html=1;align=center;verticalAlign=middle;resizable=0;points=[];autosize=1;strokeColor=none;fillColor=none;" vertex="1" parent="ZdHFeL4j2gH8la3WHfmR-1">
          <mxGeometry x="15" y="130" width="80" height="20" as="geometry" />
        </mxCell>
        <mxCell id="ZdHFeL4j2gH8la3WHfmR-15" value="onDraw()" style="text;html=1;align=center;verticalAlign=middle;resizable=0;points=[];autosize=1;strokeColor=none;fillColor=none;" vertex="1" parent="ZdHFeL4j2gH8la3WHfmR-1">
          <mxGeometry x="25" y="150" width="60" height="20" as="geometry" />
        </mxCell>
        <mxCell id="ZdHFeL4j2gH8la3WHfmR-16" value="onCollisionEnter(obj)" style="text;html=1;align=center;verticalAlign=middle;resizable=0;points=[];autosize=1;strokeColor=none;fillColor=none;" vertex="1" parent="ZdHFeL4j2gH8la3WHfmR-1">
          <mxGeometry x="15" y="170" width="130" height="20" as="geometry" />
        </mxCell>
      </root>
    </mxGraphModel>
  </diagram>
</mxfile>
